<svg id="be5937dc-d40c-46a1-84ec-aeb96d47bac9" data-name="Layer 1" xmlns="http://www.w3.org/2000/svg" width="1024" height="333" viewBox="0 0 1024 333"><defs><style>.bd78a6c4-0065-4a6b-8035-e89c11996c38{fill:#00e6e6;}</style></defs><path class="bd78a6c4-0065-4a6b-8035-e89c11996c38" d="M491.61,257.89l9.24,16.22,9.23-16.22Zm9.24,74.63A66.52,66.52,0,1,1,567.36,266a66.5,66.5,0,0,1-66.51,66.52"/><path class="bd78a6c4-0065-4a6b-8035-e89c11996c38" d="M648.07,132.75,631.71,104l-16.35,28.75ZM749.6,118.37A117.91,117.91,0,1,1,631.71.48,117.88,117.88,0,0,1,749.6,118.37"/><polygon class="bd78a6c4-0065-4a6b-8035-e89c11996c38" points="373.54 328.91 501.57 104 389.94 104 373.54 132.75 357.18 104 245.56 104 373.54 328.91"/><polygon class="bd78a6c4-0065-4a6b-8035-e89c11996c38" points="222.89 104 150.7 230.85 213.65 230.85 222.89 214.63 232.13 230.85 295.08 230.85 222.89 104"/><polygon class="bd78a6c4-0065-4a6b-8035-e89c11996c38" points="912.33 34.64 873.49 104 834.59 34.6 722.92 230.85 1024 230.85 912.33 34.64"/><polygon class="bd78a6c4-0065-4a6b-8035-e89c11996c38" points="128.03 230.85 0 5.93 111.67 5.93 128.03 34.69 144.39 5.93 256.06 5.93 128.03 230.85"/></svg>